HIERARCHY
ROOT Hips
{
	OFFSET 0.000000 0.000000 0.000000 
	CHANNELS 6 Xposition Yposition Zposition Zrotation Yrotation Xrotation
	JOINT LeftUpLeg
	{
		OFFSET 1.363060 -1.794630 0.839290 
		CHANNELS 3 Zrotation Yrotation Xrotation
		JOINT LeftLeg
		{
			OFFSET 2.448110 -6.726130 0.000000 
			CHANNELS 3 Zrotation Yrotation Xrotation
			JOINT LeftFoot
			{
				OFFSET 2.562200 -7.039590 0.000000 
				CHANNELS 3 Zrotation Yrotation Xrotation
				JOINT LeftToeBase
				{
					OFFSET 0.157640 -0.433110 2.322550 
					CHANNELS 3 Zrotation Yrotation Xrotation
					End Site
					{
						OFFSET 0.000000 0.000000 0.000000 
					}
				}
			}
		}
	}
	JOINT RightUpLeg
	{
		OFFSET -1.305520 -1.794630 0.839290 
		CHANNELS 3 Zrotation Yrotation Xrotation
		JOINT RightLeg
		{
			OFFSET -2.542530 -6.985550 0.000000 
			CHANNELS 3 Zrotation Yrotation Xrotation
			JOINT RightFoot
			{
				OFFSET -2.568260 -7.056230 0.000000 
				CHANNELS 3 Zrotation Yrotation Xrotation
				JOINT RightToeBase
				{
					OFFSET -0.164730 -0.452590 2.363150 
					CHANNELS 3 Zrotation Yrotation Xrotation
					End Site
					{
						OFFSET 0.000000 0.000000 0.000000 
					}
				}
			}
		}
	}
	JOINT Spine
	{
		OFFSET 0.028270 2.035590 -0.193380 
		CHANNELS 3 Zrotation Yrotation Xrotation
		JOINT Spine1
		{
			OFFSET 0.056720 2.048850 -0.042750 
			CHANNELS 3 Zrotation Yrotation Xrotation
			JOINT Neck1
			{
				OFFSET -0.054170 1.746240 0.172020 
				CHANNELS 3 Zrotation Yrotation Xrotation
				JOINT Head
				{
					OFFSET 0.104070 1.761360 -0.123970 
					CHANNELS 3 Zrotation Yrotation Xrotation
					End Site
					{
						OFFSET 0.000000 0.000000 0.000000 
					}
				}
			}
			JOINT LeftArm
			{
				OFFSET 3.362410 1.200890 -0.311210 
				CHANNELS 3 Zrotation Yrotation Xrotation
				JOINT LeftForeArm
				{
					OFFSET 4.983000 -0.000000 -0.000000 
					CHANNELS 3 Zrotation Yrotation Xrotation
					JOINT LeftHand
					{
						OFFSET 3.483560 -0.000000 -0.000000 
						CHANNELS 3 Zrotation Yrotation Xrotation
						JOINT LeftHandIndex1
						{
							OFFSET 0.715260 -0.000000 -0.000000 
							CHANNELS 3 Zrotation Yrotation Xrotation
							End Site
							{
								OFFSET 0.000000 0.000000 0.000000 
							}
						}
					}
				}
			}
			JOINT RightArm
			{
				OFFSET -3.136600 1.374050 -0.404650 
				CHANNELS 3 Zrotation Yrotation Xrotation
				JOINT RightForeArm
				{
					OFFSET -5.241900 -0.000000 -0.000000 
					CHANNELS 3 Zrotation Yrotation Xrotation
					JOINT RightHand
					{
						OFFSET -3.444170 -0.000000 -0.000000 
						CHANNELS 3 Zrotation Yrotation Xrotation
						JOINT RightHandIndex1
						{
							OFFSET -0.622530 -0.000000 -0.000000 
							CHANNELS 3 Zrotation Yrotation Xrotation
							End Site
							{
								OFFSET 0.000000 0.000000 0.000000 
							}
						}
					}
				}
			}
		}
	}
}
MOTION
Frames: 10
Frame Time: 0.041667
7.845268 17.504043 3.691820 -106.960884 -59.118417 98.973721 -8.244725 -17.086059 3.924403 -4.944806 7.270896 26.050024 4.417433 -11.162484 -6.602081 6.490500 -14.887400 -46.919800 22.688993 -8.563806 -55.042430 -10.327809 -27.429689 76.044746 -0.475246 -28.731065 -43.556755 -0.783700 5.651600 -15.776900 3.263399 1.716591 -1.415748 11.790386 1.299527 -13.946137 11.493132 -18.343918 17.354790 4.037000 -8.223700 15.605700 -29.479457 -5.698543 33.807779 107.280195 -54.144027 -77.427554 -0.122531 0.141397 11.391106 -7.125000 0.000000 0.000000 52.721652 -26.996321 41.081567 -32.579646 42.497217 -11.651979 0.622725 -1.897537 -6.998575 7.125000 0.000000 0.000000 
7.864456 17.437266 3.732281 -108.602051 -59.317015 99.809166 -8.749868 -16.287112 4.465734 -4.872962 7.297470 26.388857 4.601824 -12.375299 -6.988071 6.196900 -14.616400 -45.766800 21.122012 -8.159480 -53.074797 -7.171743 -25.940592 65.267928 2.734051 -14.939321 -10.453675 -0.310100 3.580000 -9.897900 3.359780 1.585322 -1.232834 12.034693 1.173771 -13.689063 11.454694 -17.754219 17.312505 4.028500 -7.989900 15.188200 -28.727322 -7.282155 33.076376 106.929110 -54.155775 -77.065596 -0.123024 0.131905 10.551114 -7.125000 0.000000 0.000000 52.924323 -27.385622 41.024269 -32.667926 42.572059 -11.687168 0.622135 -1.896120 -7.540408 7.125000 0.000000 0.000000 
7.881891 17.380029 3.778334 -110.324642 -59.701740 100.822225 -9.429866 -15.582921 5.148715 -4.943995 7.227518 26.405607 4.646536 -12.830729 -7.740790 6.062400 -14.488600 -45.231700 19.438634 -7.671001 -50.285715 -2.559400 -23.645432 52.830828 4.685366 -20.932761 -6.374434 -0.229600 3.084100 -8.513100 3.466096 1.420891 -1.119268 12.594019 1.108579 -13.647148 11.622253 -17.586172 17.502088 4.191800 -8.001500 14.982700 -28.697159 -8.978067 32.797584 105.939705 -54.190580 -76.044402 -0.132074 0.154483 10.176361 -7.125000 0.000000 0.000000 53.154318 -28.024168 41.042619 -32.414371 42.359648 -11.511704 0.617013 -1.899073 -8.222852 7.125000 0.000000 0.000000 
7.898119 17.339239 3.823729 -112.110348 -60.566119 102.149133 -10.549396 -14.953429 5.836347 -5.158750 7.162475 26.208373 4.646032 -12.919515 -9.017570 6.179300 -14.599900 -45.697100 16.057881 -5.747719 -45.439722 2.670763 -19.350825 37.055982 6.868604 -28.066913 -1.165643 -0.414700 4.133500 -11.452700 3.526764 1.150051 -1.020842 13.183230 0.989484 -13.419854 11.624528 -17.506122 18.030691 4.189200 -7.960500 15.216100 -28.716013 -10.995319 32.637935 103.612637 -54.326059 -73.747031 -0.149183 0.202634 10.049458 -7.125000 0.000000 0.000000 53.670438 -28.403704 40.622835 -31.816925 41.886639 -11.166532 0.610959 -1.911790 -8.425450 7.125000 0.000000 0.000000 
7.909194 17.317857 3.862765 -113.693101 -61.871549 103.759728 -11.957602 -14.415741 6.321561 -5.464999 7.135519 25.842732 4.652198 -13.126181 -10.308708 6.218500 -14.636800 -45.852300 9.174642 0.702384 -37.189909 7.473326 -12.212310 19.195922 3.852575 -15.537212 -13.516943 -0.922600 -6.119600 17.131900 3.513240 0.708928 -0.880638 13.532778 0.691211 -12.761323 11.660559 -17.592980 18.837224 4.227900 -7.924300 16.089900 -28.598456 -13.408781 32.133065 100.124347 -54.500783 -70.317984 -0.179614 0.270597 9.909905 -7.125000 0.000000 0.000000 54.586910 -28.115070 39.468252 -30.910900 41.222257 -10.690769 0.600566 -1.931358 -8.200093 7.125000 0.000000 0.000000 
7.915663 17.321146 3.887655 -114.791156 -63.022543 105.522356 -12.944597 -14.005481 6.218124 -5.710722 7.178652 25.509480 4.615268 -13.142819 -11.001100 6.148100 -14.570300 -45.573200 -4.784126 22.627293 -26.032532 6.884565 -5.025967 0.016586 -2.207691 1.828028 -28.027068 -4.441200 -12.725400 38.349100 3.511389 0.339159 -0.956363 13.948549 0.555435 -12.658980 11.416495 -17.766054 19.734688 4.085700 -7.991900 16.670900 -28.640636 -15.890127 32.967833 96.324998 -54.566472 -66.332243 -0.210752 0.372468 10.094062 -7.125000 0.000000 0.000000 55.851992 -29.105733 38.535877 -30.139149 40.606764 -10.281409 0.580521 -1.967249 -8.050172 7.125000 0.000000 0.000000 
7.915882 17.342967 3.892809 -115.090308 -63.332028 107.028094 -13.325149 -13.783525 5.540152 -5.847912 7.276792 25.269544 4.577292 -13.020127 -11.104044 6.109900 -14.534000 -45.421300 91.952294 -34.969950 -105.137209 1.488145 -3.106856 6.321345 -14.828738 -23.363737 70.767872 -3.996400 -12.155700 36.284900 3.533454 0.004438 -1.085387 14.392697 0.482924 -12.519275 11.204866 -17.600675 20.112745 3.942900 -7.909500 16.818400 -28.998150 -18.030734 33.977689 92.296846 -54.598101 -62.033452 -0.233593 0.490568 11.009795 -7.125000 0.000000 0.000000 57.065602 -30.350204 37.822198 -29.512335 40.075884 -9.933923 0.567838 -2.000930 -8.320606 7.125000 0.000000 0.000000 
7.906233 17.362594 3.885682 -115.983653 -63.756185 107.881934 -13.491827 -13.920282 4.863763 -5.908083 7.322208 25.153208 4.565020 -12.988209 -11.035012 6.108500 -14.532700 -45.415700 65.623484 -36.035598 -84.346226 4.297774 -4.085170 3.135834 -6.850972 -15.345297 46.167838 -2.853100 -10.453300 30.457500 3.499695 -0.262076 -1.237502 14.622136 0.526738 -12.368274 10.799537 -17.455698 20.412763 3.732100 -7.866200 16.952300 -29.684626 -20.243823 35.259189 88.393444 -54.592114 -57.764989 -0.267794 0.621502 11.783145 -7.125000 0.000000 0.000000 58.293130 -31.783668 37.146385 -29.010408 39.631904 -9.631478 0.573009 -2.031071 -8.775712 7.125000 0.000000 0.000000 
7.888031 17.364129 3.875045 -115.255120 -63.965695 108.202006 -13.492131 -14.276274 3.854757 -5.895431 7.571530 25.281018 4.574918 -12.991218 -10.823133 6.117800 -14.541500 -45.452600 63.796739 -35.487544 -83.580435 4.638108 -3.289218 3.152205 -9.683825 -8.993379 53.575480 -11.442200 -18.144800 64.209500 3.466579 -0.720693 -1.452964 14.404518 0.369106 -12.427503 10.483643 -17.219942 20.442813 3.615500 -7.804600 17.007200 -30.662431 -22.174459 36.708612 85.207490 -54.543321 -54.225031 -0.290656 0.746388 11.960432 -7.125000 0.000000 0.000000 59.498503 -33.179243 36.481527 -28.385402 39.082596 -9.261193 0.571238 -2.060242 -8.975166 7.125000 0.000000 0.000000 
7.869171 17.346805 3.861887 -114.049454 -63.550947 107.449114 -12.851198 -14.709603 3.013685 -5.709947 7.769083 25.619604 4.643351 -13.221761 -10.141869 6.049500 -14.476200 -45.180300 46.464055 -31.348116 -69.826724 6.229509 -3.290513 2.902914 -6.954581 -3.988250 44.601371 -4.298200 -12.547000 37.695600 3.451989 -1.062385 -1.620672 13.806462 0.197315 -12.573699 10.079584 -17.039226 20.324723 3.409200 -7.737000 17.050100 -31.757028 -23.677415 38.089212 83.276897 -54.469359 -51.972197 -0.293611 0.840222 11.584623 -7.125000 0.000000 0.000000 60.590913 -34.258984 35.808759 -27.577634 38.373267 -8.806247 0.552476 -2.086165 -8.773087 7.125000 0.000000 0.000000 
